<svg width="460" height="147" viewBox="0 0 460 147" fill="none" xmlns="http://www.w3.org/2000/svg">
<path d="M42.8984 32.1523H45.2422C48.6406 33.1289 53.9922 46.1367 61.2969 71.1758L63.582 72.3477C70.2227 62.2695 75.9648 50.3945 80.8086 36.7227C86.6289 34.457 93.5234 33.3242 101.492 33.3242C105.008 34.8086 106.922 36.332 107.234 37.8945C105.711 62.3867 104.949 79.2422 104.949 88.4609V102.23C106.473 107.621 107.234 110.688 107.234 111.43V112.543C107.234 114.301 105.32 115.453 101.492 116C88.4844 116 81.9805 111.02 81.9805 101.059V78.0898H79.6953C75.5156 93.4023 72.0586 101.059 69.3242 101.059C60.5352 101.059 53.2695 94.1641 47.5273 80.375L45.2422 79.2617H44.0703L42.8984 86.1172C43.6797 98.2266 44.832 106.273 46.3555 110.258C45.2227 113.305 44.0703 114.828 42.8984 114.828H36.043C26.8633 114.828 22.2734 107.953 22.2734 94.2031V72.3477C22.2734 66.1758 21.8828 58.9102 21.1016 50.5508C21.1016 38.2852 28.3672 32.1523 42.8984 32.1523ZM151.707 56.2344C154.285 57.0938 156.16 58.6562 157.332 60.9219C155.457 72.7188 154.52 80.5117 154.52 84.3008V88.0508C155.145 96.8008 156.395 101.176 158.27 101.176H159.207C160.457 101.176 161.082 100.551 161.082 99.3008V90.8633C161.277 89.6133 161.883 88.9883 162.898 88.9883C165.203 88.9883 167.078 93.3633 168.523 102.113V106.801C168.523 112.387 164.793 115.492 157.332 116.117H156.395C146.395 114.125 141.395 109.77 141.395 103.051H140.457C140.457 107.543 136.082 112.211 127.332 117.055H126.395C114.559 115.531 108.641 111.488 108.641 104.926V97.4258C108.641 70.5898 117.684 57.1719 135.77 57.1719C137.879 57.1719 143.191 56.8594 151.707 56.2344ZM125.516 98.3633L126.395 103.051H128.27C131.824 103.051 135.262 93.0703 138.582 73.1094V72.1719C138.582 71.2734 137.645 70.3359 135.77 69.3594H133.895C128.309 74.8281 125.516 84.4961 125.516 98.3633ZM186.219 55.8828H198.055C204.852 55.8828 208.25 60.3945 208.25 69.418C208.25 73.7148 209.383 77.1133 211.648 79.6133V80.4336C211.648 81.2539 210.789 82.0938 209.07 82.9531H208.25C197.508 82.1328 192.137 78.7539 192.137 72.8164H191.316C189.051 76.7617 187.918 79.5938 187.918 81.3125C205.965 87.0938 214.988 93.2852 214.988 99.8867C214.988 106.684 206.238 112.055 188.738 116C177.449 112.758 171.805 108.52 171.805 103.285V102.465C171.805 101.605 172.938 100.746 175.203 99.8867C175.477 99.8867 178.875 101.02 185.398 103.285H186.219C191.062 103.285 194.734 101.605 197.234 98.2461V96.5469C197.234 94.7109 191.023 91.8789 178.602 88.0508C173.523 84.6523 170.984 81.2734 170.984 77.9141C170.984 70.4531 176.062 63.1094 186.219 55.8828ZM239.48 56.2344H244.871C253.777 58.2656 258.23 64.5156 258.23 74.9844V76.7422C258.23 81.9375 254.363 84.9062 246.629 85.6484C243.543 85.6484 241.766 83.5781 241.297 79.4375H242.176L241.297 77.6211V73.168H239.48C237.098 73.168 235.613 78.2266 235.027 88.3438V91.918C235.027 102.621 237.996 107.973 243.934 107.973H245.75C248.289 107.621 250.066 102.855 251.082 93.6758C252.254 93.0898 253.152 92.7969 253.777 92.7969C257.957 94.0078 260.047 96.3906 260.047 99.9453C260.047 108.852 252.898 114.203 238.602 116C226.922 116 220.086 107.68 218.094 91.0391V88.3438C218.094 69.75 223.445 59.6328 234.148 57.9922C236.102 56.8203 237.879 56.2344 239.48 56.2344ZM285.184 56.0586C302.41 58.0508 311.023 64.8086 311.023 76.332C311.648 78.7148 311.961 81.1758 311.961 83.7148C309.734 104.613 305.125 115.062 298.133 115.062C298.133 115.688 297.215 116 295.379 116H292.566C272.293 116 262.156 106.469 262.156 87.4062C262.156 68.9688 269.832 58.5195 285.184 56.0586ZM279.676 92.9727V95.7266C279.676 101.039 281.824 105.023 286.121 107.68H287.996C292.293 105.648 295.047 96.1172 296.258 79.0859C295.477 69.2812 293.641 64.3789 290.75 64.3789C283.367 70.4727 279.676 80.0039 279.676 92.9727ZM330.828 19.7891C336.805 20.7656 339.793 22.0937 339.793 23.7734C339.793 24.8281 338.465 29.125 335.809 36.6641C335.809 39.125 340.125 41.0977 348.758 42.582C351.375 45.3945 352.684 48.0508 352.684 50.5508C352.215 53.8711 351.219 55.5312 349.695 55.5312C343.367 54.1641 338.738 53.4805 335.809 53.4805C333.855 55.1602 332.879 64.0859 332.879 80.2578V95.1406C332.879 96.9766 333.523 98.9688 334.812 101.117C337.234 101.117 339.539 96.4883 341.727 87.2305H342.781C344.734 89.7695 345.711 93.4219 345.711 98.1875C343.953 110.062 339.324 116 331.824 116H327.898C318.641 116 314.012 107.074 314.012 89.2227C314.012 86.1758 314.324 74.9453 314.949 55.5312H306.102C300.125 51.9375 297.137 47.9531 297.137 43.5781C298.699 42.4844 304.637 41.1758 314.949 39.6523C316.512 27.0742 320.164 20.7852 325.906 20.7852C328.133 20.7852 329.773 20.4531 330.828 19.7891ZM391.121 56.2344C393.699 57.0938 395.574 58.6562 396.746 60.9219C394.871 72.7188 393.934 80.5117 393.934 84.3008V88.0508C394.559 96.8008 395.809 101.176 397.684 101.176H398.621C399.871 101.176 400.496 100.551 400.496 99.3008V90.8633C400.691 89.6133 401.297 88.9883 402.312 88.9883C404.617 88.9883 406.492 93.3633 407.938 102.113V106.801C407.938 112.387 404.207 115.492 396.746 116.117H395.809C385.809 114.125 380.809 109.77 380.809 103.051H379.871C379.871 107.543 375.496 112.211 366.746 117.055H365.809C353.973 115.531 348.055 111.488 348.055 104.926V97.4258C348.055 70.5898 357.098 57.1719 375.184 57.1719C377.293 57.1719 382.605 56.8594 391.121 56.2344ZM364.93 98.3633L365.809 103.051H367.684C371.238 103.051 374.676 93.0703 377.996 73.1094V72.1719C377.996 71.2734 377.059 70.3359 375.184 69.3594H373.309C367.723 74.8281 364.93 84.4961 364.93 98.3633ZM425.633 55.8828H437.469C444.266 55.8828 447.664 60.3945 447.664 69.418C447.664 73.7148 448.797 77.1133 451.062 79.6133V80.4336C451.062 81.2539 450.203 82.0938 448.484 82.9531H447.664C436.922 82.1328 431.551 78.7539 431.551 72.8164H430.73C428.465 76.7617 427.332 79.5938 427.332 81.3125C445.379 87.0938 454.402 93.2852 454.402 99.8867C454.402 106.684 445.652 112.055 428.152 116C416.863 112.758 411.219 108.52 411.219 103.285V102.465C411.219 101.605 412.352 100.746 414.617 99.8867C414.891 99.8867 418.289 101.02 424.812 103.285H425.633C430.477 103.285 434.148 101.605 436.648 98.2461V96.5469C436.648 94.7109 430.438 91.8789 418.016 88.0508C412.938 84.6523 410.398 81.2734 410.398 77.9141C410.398 70.4531 415.477 63.1094 425.633 55.8828Z" fill="#D4DEEA"/>
<path d="M38.8984 28.1523H41.2422C44.6406 29.1289 49.9922 42.1367 57.2969 67.1758L59.582 68.3477C66.2227 58.2695 71.9648 46.3945 76.8086 32.7227C82.6289 30.457 89.5234 29.3242 97.4922 29.3242C101.008 30.8086 102.922 32.332 103.234 33.8945C101.711 58.3867 100.949 75.2422 100.949 84.4609V98.2305C102.473 103.621 103.234 106.688 103.234 107.43V108.543C103.234 110.301 101.32 111.453 97.4922 112C84.4844 112 77.9805 107.02 77.9805 97.0586V74.0898H75.6953C71.5156 89.4023 68.0586 97.0586 65.3242 97.0586C56.5352 97.0586 49.2695 90.1641 43.5273 76.375L41.2422 75.2617H40.0703L38.8984 82.1172C39.6797 94.2266 40.832 102.273 42.3555 106.258C41.2227 109.305 40.0703 110.828 38.8984 110.828H32.043C22.8633 110.828 18.2734 103.953 18.2734 90.2031V68.3477C18.2734 62.1758 17.8828 54.9102 17.1016 46.5508C17.1016 34.2852 24.3672 28.1523 38.8984 28.1523ZM147.707 52.2344C150.285 53.0938 152.16 54.6562 153.332 56.9219C151.457 68.7188 150.52 76.5117 150.52 80.3008V84.0508C151.145 92.8008 152.395 97.1758 154.27 97.1758H155.207C156.457 97.1758 157.082 96.5508 157.082 95.3008V86.8633C157.277 85.6133 157.883 84.9883 158.898 84.9883C161.203 84.9883 163.078 89.3633 164.523 98.1133V102.801C164.523 108.387 160.793 111.492 153.332 112.117H152.395C142.395 110.125 137.395 105.77 137.395 99.0508H136.457C136.457 103.543 132.082 108.211 123.332 113.055H122.395C110.559 111.531 104.641 107.488 104.641 100.926V93.4258C104.641 66.5898 113.684 53.1719 131.77 53.1719C133.879 53.1719 139.191 52.8594 147.707 52.2344ZM121.516 94.3633L122.395 99.0508H124.27C127.824 99.0508 131.262 89.0703 134.582 69.1094V68.1719C134.582 67.2734 133.645 66.3359 131.77 65.3594H129.895C124.309 70.8281 121.516 80.4961 121.516 94.3633ZM182.219 51.8828H194.055C200.852 51.8828 204.25 56.3945 204.25 65.418C204.25 69.7148 205.383 73.1133 207.648 75.6133V76.4336C207.648 77.2539 206.789 78.0938 205.07 78.9531H204.25C193.508 78.1328 188.137 74.7539 188.137 68.8164H187.316C185.051 72.7617 183.918 75.5938 183.918 77.3125C201.965 83.0938 210.988 89.2852 210.988 95.8867C210.988 102.684 202.238 108.055 184.738 112C173.449 108.758 167.805 104.52 167.805 99.2852V98.4648C167.805 97.6055 168.938 96.7461 171.203 95.8867C171.477 95.8867 174.875 97.0195 181.398 99.2852H182.219C187.062 99.2852 190.734 97.6055 193.234 94.2461V92.5469C193.234 90.7109 187.023 87.8789 174.602 84.0508C169.523 80.6523 166.984 77.2734 166.984 73.9141C166.984 66.4531 172.062 59.1094 182.219 51.8828ZM235.48 52.2344H240.871C249.777 54.2656 254.23 60.5156 254.23 70.9844V72.7422C254.23 77.9375 250.363 80.9062 242.629 81.6484C239.543 81.6484 237.766 79.5781 237.297 75.4375H238.176L237.297 73.6211V69.168H235.48C233.098 69.168 231.613 74.2266 231.027 84.3438V87.918C231.027 98.6211 233.996 103.973 239.934 103.973H241.75C244.289 103.621 246.066 98.8555 247.082 89.6758C248.254 89.0898 249.152 88.7969 249.777 88.7969C253.957 90.0078 256.047 92.3906 256.047 95.9453C256.047 104.852 248.898 110.203 234.602 112C222.922 112 216.086 103.68 214.094 87.0391V84.3438C214.094 65.75 219.445 55.6328 230.148 53.9922C232.102 52.8203 233.879 52.2344 235.48 52.2344ZM281.184 52.0586C298.41 54.0508 307.023 60.8086 307.023 72.332C307.648 74.7148 307.961 77.1758 307.961 79.7148C305.734 100.613 301.125 111.062 294.133 111.062C294.133 111.688 293.215 112 291.379 112H288.566C268.293 112 258.156 102.469 258.156 83.4062C258.156 64.9688 265.832 54.5195 281.184 52.0586ZM275.676 88.9727V91.7266C275.676 97.0391 277.824 101.023 282.121 103.68H283.996C288.293 101.648 291.047 92.1172 292.258 75.0859C291.477 65.2812 289.641 60.3789 286.75 60.3789C279.367 66.4727 275.676 76.0039 275.676 88.9727ZM326.828 15.7891C332.805 16.7656 335.793 18.0937 335.793 19.7734C335.793 20.8281 334.465 25.125 331.809 32.6641C331.809 35.125 336.125 37.0977 344.758 38.582C347.375 41.3945 348.684 44.0508 348.684 46.5508C348.215 49.8711 347.219 51.5312 345.695 51.5312C339.367 50.1641 334.738 49.4805 331.809 49.4805C329.855 51.1602 328.879 60.0859 328.879 76.2578V91.1406C328.879 92.9766 329.523 94.9688 330.812 97.1172C333.234 97.1172 335.539 92.4883 337.727 83.2305H338.781C340.734 85.7695 341.711 89.4219 341.711 94.1875C339.953 106.062 335.324 112 327.824 112H323.898C314.641 112 310.012 103.074 310.012 85.2227C310.012 82.1758 310.324 70.9453 310.949 51.5312H302.102C296.125 47.9375 293.137 43.9531 293.137 39.5781C294.699 38.4844 300.637 37.1758 310.949 35.6523C312.512 23.0742 316.164 16.7852 321.906 16.7852C324.133 16.7852 325.773 16.4531 326.828 15.7891ZM387.121 52.2344C389.699 53.0938 391.574 54.6562 392.746 56.9219C390.871 68.7188 389.934 76.5117 389.934 80.3008V84.0508C390.559 92.8008 391.809 97.1758 393.684 97.1758H394.621C395.871 97.1758 396.496 96.5508 396.496 95.3008V86.8633C396.691 85.6133 397.297 84.9883 398.312 84.9883C400.617 84.9883 402.492 89.3633 403.938 98.1133V102.801C403.938 108.387 400.207 111.492 392.746 112.117H391.809C381.809 110.125 376.809 105.77 376.809 99.0508H375.871C375.871 103.543 371.496 108.211 362.746 113.055H361.809C349.973 111.531 344.055 107.488 344.055 100.926V93.4258C344.055 66.5898 353.098 53.1719 371.184 53.1719C373.293 53.1719 378.605 52.8594 387.121 52.2344ZM360.93 94.3633L361.809 99.0508H363.684C367.238 99.0508 370.676 89.0703 373.996 69.1094V68.1719C373.996 67.2734 373.059 66.3359 371.184 65.3594H369.309C363.723 70.8281 360.93 80.4961 360.93 94.3633ZM421.633 51.8828H433.469C440.266 51.8828 443.664 56.3945 443.664 65.418C443.664 69.7148 444.797 73.1133 447.062 75.6133V76.4336C447.062 77.2539 446.203 78.0938 444.484 78.9531H443.664C432.922 78.1328 427.551 74.7539 427.551 68.8164H426.73C424.465 72.7617 423.332 75.5938 423.332 77.3125C441.379 83.0938 450.402 89.2852 450.402 95.8867C450.402 102.684 441.652 108.055 424.152 112C412.863 108.758 407.219 104.52 407.219 99.2852V98.4648C407.219 97.6055 408.352 96.7461 410.617 95.8867C410.891 95.8867 414.289 97.0195 420.812 99.2852H421.633C426.477 99.2852 430.148 97.6055 432.648 94.2461V92.5469C432.648 90.7109 426.438 87.8789 414.016 84.0508C408.938 80.6523 406.398 77.2734 406.398 73.9141C406.398 66.4531 411.477 59.1094 421.633 51.8828Z" fill="#6586BD"/>
<path d="M25.8984 23.1523H28.2422C31.6406 24.1289 36.9922 37.1367 44.2969 62.1758L46.582 63.3477C53.2227 53.2695 58.9648 41.3945 63.8086 27.7227C69.6289 25.457 76.5234 24.3242 84.4922 24.3242C88.0078 25.8086 89.9219 27.332 90.2344 28.8945C88.7109 53.3867 87.9492 70.2422 87.9492 79.4609V93.2305C89.4727 98.6211 90.2344 101.688 90.2344 102.43V103.543C90.2344 105.301 88.3203 106.453 84.4922 107C71.4844 107 64.9805 102.02 64.9805 92.0586V69.0898H62.6953C58.5156 84.4023 55.0586 92.0586 52.3242 92.0586C43.5352 92.0586 36.2695 85.1641 30.5273 71.375L28.2422 70.2617H27.0703L25.8984 77.1172C26.6797 89.2266 27.832 97.2734 29.3555 101.258C28.2227 104.305 27.0703 105.828 25.8984 105.828H19.043C9.86328 105.828 5.27344 98.9531 5.27344 85.2031V63.3477C5.27344 57.1758 4.88281 49.9102 4.10156 41.5508C4.10156 29.2852 11.3672 23.1523 25.8984 23.1523ZM134.707 47.2344C137.285 48.0938 139.16 49.6562 140.332 51.9219C138.457 63.7188 137.52 71.5117 137.52 75.3008V79.0508C138.145 87.8008 139.395 92.1758 141.27 92.1758H142.207C143.457 92.1758 144.082 91.5508 144.082 90.3008V81.8633C144.277 80.6133 144.883 79.9883 145.898 79.9883C148.203 79.9883 150.078 84.3633 151.523 93.1133V97.8008C151.523 103.387 147.793 106.492 140.332 107.117H139.395C129.395 105.125 124.395 100.77 124.395 94.0508H123.457C123.457 98.543 119.082 103.211 110.332 108.055H109.395C97.5586 106.531 91.6406 102.488 91.6406 95.9258V88.4258C91.6406 61.5898 100.684 48.1719 118.77 48.1719C120.879 48.1719 126.191 47.8594 134.707 47.2344ZM108.516 89.3633L109.395 94.0508H111.27C114.824 94.0508 118.262 84.0703 121.582 64.1094V63.1719C121.582 62.2734 120.645 61.3359 118.77 60.3594H116.895C111.309 65.8281 108.516 75.4961 108.516 89.3633ZM169.219 46.8828H181.055C187.852 46.8828 191.25 51.3945 191.25 60.418C191.25 64.7148 192.383 68.1133 194.648 70.6133V71.4336C194.648 72.2539 193.789 73.0938 192.07 73.9531H191.25C180.508 73.1328 175.137 69.7539 175.137 63.8164H174.316C172.051 67.7617 170.918 70.5938 170.918 72.3125C188.965 78.0938 197.988 84.2852 197.988 90.8867C197.988 97.6836 189.238 103.055 171.738 107C160.449 103.758 154.805 99.5195 154.805 94.2852V93.4648C154.805 92.6055 155.938 91.7461 158.203 90.8867C158.477 90.8867 161.875 92.0195 168.398 94.2852H169.219C174.062 94.2852 177.734 92.6055 180.234 89.2461V87.5469C180.234 85.7109 174.023 82.8789 161.602 79.0508C156.523 75.6523 153.984 72.2734 153.984 68.9141C153.984 61.4531 159.062 54.1094 169.219 46.8828ZM222.48 47.2344H227.871C236.777 49.2656 241.23 55.5156 241.23 65.9844V67.7422C241.23 72.9375 237.363 75.9062 229.629 76.6484C226.543 76.6484 224.766 74.5781 224.297 70.4375H225.176L224.297 68.6211V64.168H222.48C220.098 64.168 218.613 69.2266 218.027 79.3438V82.918C218.027 93.6211 220.996 98.9727 226.934 98.9727H228.75C231.289 98.6211 233.066 93.8555 234.082 84.6758C235.254 84.0898 236.152 83.7969 236.777 83.7969C240.957 85.0078 243.047 87.3906 243.047 90.9453C243.047 99.8516 235.898 105.203 221.602 107C209.922 107 203.086 98.6797 201.094 82.0391V79.3438C201.094 60.75 206.445 50.6328 217.148 48.9922C219.102 47.8203 220.879 47.2344 222.48 47.2344ZM268.184 47.0586C285.41 49.0508 294.023 55.8086 294.023 67.332C294.648 69.7148 294.961 72.1758 294.961 74.7148C292.734 95.6133 288.125 106.062 281.133 106.062C281.133 106.688 280.215 107 278.379 107H275.566C255.293 107 245.156 97.4688 245.156 78.4062C245.156 59.9688 252.832 49.5195 268.184 47.0586ZM262.676 83.9727V86.7266C262.676 92.0391 264.824 96.0234 269.121 98.6797H270.996C275.293 96.6484 278.047 87.1172 279.258 70.0859C278.477 60.2812 276.641 55.3789 273.75 55.3789C266.367 61.4727 262.676 71.0039 262.676 83.9727ZM313.828 10.7891C319.805 11.7656 322.793 13.0937 322.793 14.7734C322.793 15.8281 321.465 20.125 318.809 27.6641C318.809 30.125 323.125 32.0977 331.758 33.582C334.375 36.3945 335.684 39.0508 335.684 41.5508C335.215 44.8711 334.219 46.5312 332.695 46.5312C326.367 45.1641 321.738 44.4805 318.809 44.4805C316.855 46.1602 315.879 55.0859 315.879 71.2578V86.1406C315.879 87.9766 316.523 89.9688 317.812 92.1172C320.234 92.1172 322.539 87.4883 324.727 78.2305H325.781C327.734 80.7695 328.711 84.4219 328.711 89.1875C326.953 101.062 322.324 107 314.824 107H310.898C301.641 107 297.012 98.0742 297.012 80.2227C297.012 77.1758 297.324 65.9453 297.949 46.5312H289.102C283.125 42.9375 280.137 38.9531 280.137 34.5781C281.699 33.4844 287.637 32.1758 297.949 30.6523C299.512 18.0742 303.164 11.7852 308.906 11.7852C311.133 11.7852 312.773 11.4531 313.828 10.7891ZM374.121 47.2344C376.699 48.0938 378.574 49.6562 379.746 51.9219C377.871 63.7188 376.934 71.5117 376.934 75.3008V79.0508C377.559 87.8008 378.809 92.1758 380.684 92.1758H381.621C382.871 92.1758 383.496 91.5508 383.496 90.3008V81.8633C383.691 80.6133 384.297 79.9883 385.312 79.9883C387.617 79.9883 389.492 84.3633 390.938 93.1133V97.8008C390.938 103.387 387.207 106.492 379.746 107.117H378.809C368.809 105.125 363.809 100.77 363.809 94.0508H362.871C362.871 98.543 358.496 103.211 349.746 108.055H348.809C336.973 106.531 331.055 102.488 331.055 95.9258V88.4258C331.055 61.5898 340.098 48.1719 358.184 48.1719C360.293 48.1719 365.605 47.8594 374.121 47.2344ZM347.93 89.3633L348.809 94.0508H350.684C354.238 94.0508 357.676 84.0703 360.996 64.1094V63.1719C360.996 62.2734 360.059 61.3359 358.184 60.3594H356.309C350.723 65.8281 347.93 75.4961 347.93 89.3633ZM408.633 46.8828H420.469C427.266 46.8828 430.664 51.3945 430.664 60.418C430.664 64.7148 431.797 68.1133 434.062 70.6133V71.4336C434.062 72.2539 433.203 73.0938 431.484 73.9531H430.664C419.922 73.1328 414.551 69.7539 414.551 63.8164H413.73C411.465 67.7617 410.332 70.5938 410.332 72.3125C428.379 78.0938 437.402 84.2852 437.402 90.8867C437.402 97.6836 428.652 103.055 411.152 107C399.863 103.758 394.219 99.5195 394.219 94.2852V93.4648C394.219 92.6055 395.352 91.7461 397.617 90.8867C397.891 90.8867 401.289 92.0195 407.812 94.2852H408.633C413.477 94.2852 417.148 92.6055 419.648 89.2461V87.5469C419.648 85.7109 413.438 82.8789 401.016 79.0508C395.938 75.6523 393.398 72.2734 393.398 68.9141C393.398 61.4531 398.477 54.1094 408.633 46.8828Z" fill="white"/>
</svg>
