<svg width="386" height="133" viewBox="0 0 386 133" fill="none" xmlns="http://www.w3.org/2000/svg">
<path d="M69.0117 33.0352H71.2969C79.7344 34.0117 83.9531 36.6875 83.9531 41.0625C83.9531 86.6484 82.0391 111.199 78.2109 114.715H67.8398C59.6367 114.715 52.7422 105.125 47.1562 85.9453C46.375 85.9453 44.4414 81.7266 41.3555 73.2891H37.957V84.7734C37.957 94.8516 39.4805 104.832 42.5273 114.715L39.0703 117H33.3281C22.5859 117 17.2148 108.562 17.2148 91.6875C17.2148 82.9766 16.4531 66.1016 14.9297 41.0625C22.1562 36.4922 30.2031 34.207 39.0703 34.207C44.1875 34.207 49.168 45.3203 54.0117 67.5469C54.9492 67.5469 56.4922 71.0039 58.6406 77.918H60.9258C61.9805 64.8711 62.7422 57.5859 63.2109 56.0625L59.8125 37.6641C59.8125 35.6328 62.8789 34.0898 69.0117 33.0352ZM108.973 57.0586C126.199 59.0508 134.812 65.8086 134.812 77.332C135.438 79.7148 135.75 82.1758 135.75 84.7148C133.523 105.613 128.914 116.062 121.922 116.062C121.922 116.688 121.004 117 119.168 117H116.355C96.082 117 85.9453 107.469 85.9453 88.4062C85.9453 69.9688 93.6211 59.5195 108.973 57.0586ZM103.465 93.9727V96.7266C103.465 102.039 105.613 106.023 109.91 108.68H111.785C116.082 106.648 118.836 97.1172 120.047 80.0859C119.266 70.2812 117.43 65.3789 114.539 65.3789C107.156 71.4727 103.465 81.0039 103.465 93.9727ZM154.617 20.7891C160.594 21.7656 163.582 23.0937 163.582 24.7734C163.582 25.8281 162.254 30.125 159.598 37.6641C159.598 40.125 163.914 42.0977 172.547 43.582C175.164 46.3945 176.473 49.0508 176.473 51.5508C176.004 54.8711 175.008 56.5312 173.484 56.5312C167.156 55.1641 162.527 54.4805 159.598 54.4805C157.645 56.1602 156.668 65.0859 156.668 81.2578V96.1406C156.668 97.9766 157.312 99.9688 158.602 102.117C161.023 102.117 163.328 97.4883 165.516 88.2305H166.57C168.523 90.7695 169.5 94.4219 169.5 99.1875C167.742 111.062 163.113 117 155.613 117H151.688C142.43 117 137.801 108.074 137.801 90.2227C137.801 87.1758 138.113 75.9453 138.738 56.5312H129.891C123.914 52.9375 120.926 48.9531 120.926 44.5781C122.488 43.4844 128.426 42.1758 138.738 40.6523C140.301 28.0742 143.953 21.7852 149.695 21.7852C151.922 21.7852 153.562 21.4531 154.617 20.7891ZM182.625 24.3633H184.5C189.734 24.3633 193.426 26.2188 195.574 29.9297C192.957 43.5234 190.809 50.3203 189.129 50.3203H185.379C179.207 50.3203 176.121 46.6094 176.121 39.1875V32.6836C176.121 27.1367 178.289 24.3633 182.625 24.3633ZM183.562 57.7031H184.5C188.133 57.7031 191.219 59.5586 193.758 63.2695C191.883 70.7305 190.34 79.6953 189.129 90.1641C189.91 98.1719 191.141 102.176 192.82 102.176C195.281 98.6211 196.512 95.8477 196.512 93.8555H199.266L200.203 100.301C200.203 111.434 196.512 117 189.129 117C177.996 117 172.43 107.117 172.43 87.3516V83.6602C172.43 66.9805 174.598 58.6406 178.934 58.6406C179.949 58.0156 181.492 57.7031 183.562 57.7031ZM223.934 57.2344H229.324C238.23 59.2656 242.684 65.5156 242.684 75.9844V77.7422C242.684 82.9375 238.816 85.9062 231.082 86.6484C227.996 86.6484 226.219 84.5781 225.75 80.4375H226.629L225.75 78.6211V74.168H223.934C221.551 74.168 220.066 79.2266 219.48 89.3438V92.918C219.48 103.621 222.449 108.973 228.387 108.973H230.203C232.742 108.621 234.52 103.855 235.535 94.6758C236.707 94.0898 237.605 93.7969 238.23 93.7969C242.41 95.0078 244.5 97.3906 244.5 100.945C244.5 109.852 237.352 115.203 223.055 117C211.375 117 204.539 108.68 202.547 92.0391V89.3438C202.547 70.75 207.898 60.6328 218.602 58.9922C220.555 57.8203 222.332 57.2344 223.934 57.2344ZM256.805 24.3633H258.68C263.914 24.3633 267.605 26.2188 269.754 29.9297C267.137 43.5234 264.988 50.3203 263.309 50.3203H259.559C253.387 50.3203 250.301 46.6094 250.301 39.1875V32.6836C250.301 27.1367 252.469 24.3633 256.805 24.3633ZM257.742 57.7031H258.68C262.312 57.7031 265.398 59.5586 267.938 63.2695C266.062 70.7305 264.52 79.6953 263.309 90.1641C264.09 98.1719 265.32 102.176 267 102.176C269.461 98.6211 270.691 95.8477 270.691 93.8555H273.445L274.383 100.301C274.383 111.434 270.691 117 263.309 117C252.176 117 246.609 107.117 246.609 87.3516V83.6602C246.609 66.9805 248.777 58.6406 253.113 58.6406C254.129 58.0156 255.672 57.7031 257.742 57.7031ZM319.207 57.2344C321.785 58.0938 323.66 59.6562 324.832 61.9219C322.957 73.7188 322.02 81.5117 322.02 85.3008V89.0508C322.645 97.8008 323.895 102.176 325.77 102.176H326.707C327.957 102.176 328.582 101.551 328.582 100.301V91.8633C328.777 90.6133 329.383 89.9883 330.398 89.9883C332.703 89.9883 334.578 94.3633 336.023 103.113V107.801C336.023 113.387 332.293 116.492 324.832 117.117H323.895C313.895 115.125 308.895 110.77 308.895 104.051H307.957C307.957 108.543 303.582 113.211 294.832 118.055H293.895C282.059 116.531 276.141 112.488 276.141 105.926V98.4258C276.141 71.5898 285.184 58.1719 303.27 58.1719C305.379 58.1719 310.691 57.8594 319.207 57.2344ZM293.016 99.3633L293.895 104.051H295.77C299.324 104.051 302.762 94.0703 306.082 74.1094V73.1719C306.082 72.2734 305.145 71.3359 303.27 70.3594H301.395C295.809 75.8281 293.016 85.4961 293.016 99.3633ZM353.719 56.8828H365.555C372.352 56.8828 375.75 61.3945 375.75 70.418C375.75 74.7148 376.883 78.1133 379.148 80.6133V81.4336C379.148 82.2539 378.289 83.0938 376.57 83.9531H375.75C365.008 83.1328 359.637 79.7539 359.637 73.8164H358.816C356.551 77.7617 355.418 80.5938 355.418 82.3125C373.465 88.0938 382.488 94.2852 382.488 100.887C382.488 107.684 373.738 113.055 356.238 117C344.949 113.758 339.305 109.52 339.305 104.285V103.465C339.305 102.605 340.438 101.746 342.703 100.887C342.977 100.887 346.375 102.02 352.898 104.285H353.719C358.562 104.285 362.234 102.605 364.734 99.2461V97.5469C364.734 95.7109 358.523 92.8789 346.102 89.0508C341.023 85.6523 338.484 82.2734 338.484 78.9141C338.484 71.4531 343.562 64.1094 353.719 56.8828Z" fill="#6586BD"/>
<path d="M63.0117 28.0352H65.2969C73.7344 29.0117 77.9531 31.6875 77.9531 36.0625C77.9531 81.6484 76.0391 106.199 72.2109 109.715H61.8398C53.6367 109.715 46.7422 100.125 41.1562 80.9453C40.375 80.9453 38.4414 76.7266 35.3555 68.2891H31.957V79.7734C31.957 89.8516 33.4805 99.832 36.5273 109.715L33.0703 112H27.3281C16.5859 112 11.2148 103.562 11.2148 86.6875C11.2148 77.9766 10.4531 61.1016 8.92969 36.0625C16.1562 31.4922 24.2031 29.207 33.0703 29.207C38.1875 29.207 43.168 40.3203 48.0117 62.5469C48.9492 62.5469 50.4922 66.0039 52.6406 72.918H54.9258C55.9805 59.8711 56.7422 52.5859 57.2109 51.0625L53.8125 32.6641C53.8125 30.6328 56.8789 29.0898 63.0117 28.0352ZM102.973 52.0586C120.199 54.0508 128.812 60.8086 128.812 72.332C129.438 74.7148 129.75 77.1758 129.75 79.7148C127.523 100.613 122.914 111.062 115.922 111.062C115.922 111.688 115.004 112 113.168 112H110.355C90.082 112 79.9453 102.469 79.9453 83.4062C79.9453 64.9688 87.6211 54.5195 102.973 52.0586ZM97.4648 88.9727V91.7266C97.4648 97.0391 99.6133 101.023 103.91 103.68H105.785C110.082 101.648 112.836 92.1172 114.047 75.0859C113.266 65.2812 111.43 60.3789 108.539 60.3789C101.156 66.4727 97.4648 76.0039 97.4648 88.9727ZM148.617 15.7891C154.594 16.7656 157.582 18.0937 157.582 19.7734C157.582 20.8281 156.254 25.125 153.598 32.6641C153.598 35.125 157.914 37.0977 166.547 38.582C169.164 41.3945 170.473 44.0508 170.473 46.5508C170.004 49.8711 169.008 51.5312 167.484 51.5312C161.156 50.1641 156.527 49.4805 153.598 49.4805C151.645 51.1602 150.668 60.0859 150.668 76.2578V91.1406C150.668 92.9766 151.312 94.9688 152.602 97.1172C155.023 97.1172 157.328 92.4883 159.516 83.2305H160.57C162.523 85.7695 163.5 89.4219 163.5 94.1875C161.742 106.062 157.113 112 149.613 112H145.688C136.43 112 131.801 103.074 131.801 85.2227C131.801 82.1758 132.113 70.9453 132.738 51.5312H123.891C117.914 47.9375 114.926 43.9531 114.926 39.5781C116.488 38.4844 122.426 37.1758 132.738 35.6523C134.301 23.0742 137.953 16.7852 143.695 16.7852C145.922 16.7852 147.562 16.4531 148.617 15.7891ZM176.625 19.3633H178.5C183.734 19.3633 187.426 21.2188 189.574 24.9297C186.957 38.5234 184.809 45.3203 183.129 45.3203H179.379C173.207 45.3203 170.121 41.6094 170.121 34.1875V27.6836C170.121 22.1367 172.289 19.3633 176.625 19.3633ZM177.562 52.7031H178.5C182.133 52.7031 185.219 54.5586 187.758 58.2695C185.883 65.7305 184.34 74.6953 183.129 85.1641C183.91 93.1719 185.141 97.1758 186.82 97.1758C189.281 93.6211 190.512 90.8477 190.512 88.8555H193.266L194.203 95.3008C194.203 106.434 190.512 112 183.129 112C171.996 112 166.43 102.117 166.43 82.3516V78.6602C166.43 61.9805 168.598 53.6406 172.934 53.6406C173.949 53.0156 175.492 52.7031 177.562 52.7031ZM217.934 52.2344H223.324C232.23 54.2656 236.684 60.5156 236.684 70.9844V72.7422C236.684 77.9375 232.816 80.9062 225.082 81.6484C221.996 81.6484 220.219 79.5781 219.75 75.4375H220.629L219.75 73.6211V69.168H217.934C215.551 69.168 214.066 74.2266 213.48 84.3438V87.918C213.48 98.6211 216.449 103.973 222.387 103.973H224.203C226.742 103.621 228.52 98.8555 229.535 89.6758C230.707 89.0898 231.605 88.7969 232.23 88.7969C236.41 90.0078 238.5 92.3906 238.5 95.9453C238.5 104.852 231.352 110.203 217.055 112C205.375 112 198.539 103.68 196.547 87.0391V84.3438C196.547 65.75 201.898 55.6328 212.602 53.9922C214.555 52.8203 216.332 52.2344 217.934 52.2344ZM250.805 19.3633H252.68C257.914 19.3633 261.605 21.2188 263.754 24.9297C261.137 38.5234 258.988 45.3203 257.309 45.3203H253.559C247.387 45.3203 244.301 41.6094 244.301 34.1875V27.6836C244.301 22.1367 246.469 19.3633 250.805 19.3633ZM251.742 52.7031H252.68C256.312 52.7031 259.398 54.5586 261.938 58.2695C260.062 65.7305 258.52 74.6953 257.309 85.1641C258.09 93.1719 259.32 97.1758 261 97.1758C263.461 93.6211 264.691 90.8477 264.691 88.8555H267.445L268.383 95.3008C268.383 106.434 264.691 112 257.309 112C246.176 112 240.609 102.117 240.609 82.3516V78.6602C240.609 61.9805 242.777 53.6406 247.113 53.6406C248.129 53.0156 249.672 52.7031 251.742 52.7031ZM313.207 52.2344C315.785 53.0938 317.66 54.6562 318.832 56.9219C316.957 68.7188 316.02 76.5117 316.02 80.3008V84.0508C316.645 92.8008 317.895 97.1758 319.77 97.1758H320.707C321.957 97.1758 322.582 96.5508 322.582 95.3008V86.8633C322.777 85.6133 323.383 84.9883 324.398 84.9883C326.703 84.9883 328.578 89.3633 330.023 98.1133V102.801C330.023 108.387 326.293 111.492 318.832 112.117H317.895C307.895 110.125 302.895 105.77 302.895 99.0508H301.957C301.957 103.543 297.582 108.211 288.832 113.055H287.895C276.059 111.531 270.141 107.488 270.141 100.926V93.4258C270.141 66.5898 279.184 53.1719 297.27 53.1719C299.379 53.1719 304.691 52.8594 313.207 52.2344ZM287.016 94.3633L287.895 99.0508H289.77C293.324 99.0508 296.762 89.0703 300.082 69.1094V68.1719C300.082 67.2734 299.145 66.3359 297.27 65.3594H295.395C289.809 70.8281 287.016 80.4961 287.016 94.3633ZM347.719 51.8828H359.555C366.352 51.8828 369.75 56.3945 369.75 65.418C369.75 69.7148 370.883 73.1133 373.148 75.6133V76.4336C373.148 77.2539 372.289 78.0938 370.57 78.9531H369.75C359.008 78.1328 353.637 74.7539 353.637 68.8164H352.816C350.551 72.7617 349.418 75.5938 349.418 77.3125C367.465 83.0938 376.488 89.2852 376.488 95.8867C376.488 102.684 367.738 108.055 350.238 112C338.949 108.758 333.305 104.52 333.305 99.2852V98.4648C333.305 97.6055 334.438 96.7461 336.703 95.8867C336.977 95.8867 340.375 97.0195 346.898 99.2852H347.719C352.562 99.2852 356.234 97.6055 358.734 94.2461V92.5469C358.734 90.7109 352.523 87.8789 340.102 84.0508C335.023 80.6523 332.484 77.2734 332.484 73.9141C332.484 66.4531 337.562 59.1094 347.719 51.8828Z" fill="#1A347E"/>
<path d="M57.0117 23.0352H59.2969C67.7344 24.0117 71.9531 26.6875 71.9531 31.0625C71.9531 76.6484 70.0391 101.199 66.2109 104.715H55.8398C47.6367 104.715 40.7422 95.125 35.1562 75.9453C34.375 75.9453 32.4414 71.7266 29.3555 63.2891H25.957V74.7734C25.957 84.8516 27.4805 94.832 30.5273 104.715L27.0703 107H21.3281C10.5859 107 5.21484 98.5625 5.21484 81.6875C5.21484 72.9766 4.45312 56.1016 2.92969 31.0625C10.1562 26.4922 18.2031 24.207 27.0703 24.207C32.1875 24.207 37.168 35.3203 42.0117 57.5469C42.9492 57.5469 44.4922 61.0039 46.6406 67.918H48.9258C49.9805 54.8711 50.7422 47.5859 51.2109 46.0625L47.8125 27.6641C47.8125 25.6328 50.8789 24.0898 57.0117 23.0352ZM96.9727 47.0586C114.199 49.0508 122.812 55.8086 122.812 67.332C123.438 69.7148 123.75 72.1758 123.75 74.7148C121.523 95.6133 116.914 106.062 109.922 106.062C109.922 106.688 109.004 107 107.168 107H104.355C84.082 107 73.9453 97.4688 73.9453 78.4062C73.9453 59.9688 81.6211 49.5195 96.9727 47.0586ZM91.4648 83.9727V86.7266C91.4648 92.0391 93.6133 96.0234 97.9102 98.6797H99.7852C104.082 96.6484 106.836 87.1172 108.047 70.0859C107.266 60.2812 105.43 55.3789 102.539 55.3789C95.1562 61.4727 91.4648 71.0039 91.4648 83.9727ZM142.617 10.7891C148.594 11.7656 151.582 13.0937 151.582 14.7734C151.582 15.8281 150.254 20.125 147.598 27.6641C147.598 30.125 151.914 32.0977 160.547 33.582C163.164 36.3945 164.473 39.0508 164.473 41.5508C164.004 44.8711 163.008 46.5312 161.484 46.5312C155.156 45.1641 150.527 44.4805 147.598 44.4805C145.645 46.1602 144.668 55.0859 144.668 71.2578V86.1406C144.668 87.9766 145.312 89.9688 146.602 92.1172C149.023 92.1172 151.328 87.4883 153.516 78.2305H154.57C156.523 80.7695 157.5 84.4219 157.5 89.1875C155.742 101.062 151.113 107 143.613 107H139.688C130.43 107 125.801 98.0742 125.801 80.2227C125.801 77.1758 126.113 65.9453 126.738 46.5312H117.891C111.914 42.9375 108.926 38.9531 108.926 34.5781C110.488 33.4844 116.426 32.1758 126.738 30.6523C128.301 18.0742 131.953 11.7852 137.695 11.7852C139.922 11.7852 141.562 11.4531 142.617 10.7891ZM170.625 14.3633H172.5C177.734 14.3633 181.426 16.2188 183.574 19.9297C180.957 33.5234 178.809 40.3203 177.129 40.3203H173.379C167.207 40.3203 164.121 36.6094 164.121 29.1875V22.6836C164.121 17.1367 166.289 14.3633 170.625 14.3633ZM171.562 47.7031H172.5C176.133 47.7031 179.219 49.5586 181.758 53.2695C179.883 60.7305 178.34 69.6953 177.129 80.1641C177.91 88.1719 179.141 92.1758 180.82 92.1758C183.281 88.6211 184.512 85.8477 184.512 83.8555H187.266L188.203 90.3008C188.203 101.434 184.512 107 177.129 107C165.996 107 160.43 97.1172 160.43 77.3516V73.6602C160.43 56.9805 162.598 48.6406 166.934 48.6406C167.949 48.0156 169.492 47.7031 171.562 47.7031ZM211.934 47.2344H217.324C226.23 49.2656 230.684 55.5156 230.684 65.9844V67.7422C230.684 72.9375 226.816 75.9062 219.082 76.6484C215.996 76.6484 214.219 74.5781 213.75 70.4375H214.629L213.75 68.6211V64.168H211.934C209.551 64.168 208.066 69.2266 207.48 79.3438V82.918C207.48 93.6211 210.449 98.9727 216.387 98.9727H218.203C220.742 98.6211 222.52 93.8555 223.535 84.6758C224.707 84.0898 225.605 83.7969 226.23 83.7969C230.41 85.0078 232.5 87.3906 232.5 90.9453C232.5 99.8516 225.352 105.203 211.055 107C199.375 107 192.539 98.6797 190.547 82.0391V79.3438C190.547 60.75 195.898 50.6328 206.602 48.9922C208.555 47.8203 210.332 47.2344 211.934 47.2344ZM244.805 14.3633H246.68C251.914 14.3633 255.605 16.2188 257.754 19.9297C255.137 33.5234 252.988 40.3203 251.309 40.3203H247.559C241.387 40.3203 238.301 36.6094 238.301 29.1875V22.6836C238.301 17.1367 240.469 14.3633 244.805 14.3633ZM245.742 47.7031H246.68C250.312 47.7031 253.398 49.5586 255.938 53.2695C254.062 60.7305 252.52 69.6953 251.309 80.1641C252.09 88.1719 253.32 92.1758 255 92.1758C257.461 88.6211 258.691 85.8477 258.691 83.8555H261.445L262.383 90.3008C262.383 101.434 258.691 107 251.309 107C240.176 107 234.609 97.1172 234.609 77.3516V73.6602C234.609 56.9805 236.777 48.6406 241.113 48.6406C242.129 48.0156 243.672 47.7031 245.742 47.7031ZM307.207 47.2344C309.785 48.0938 311.66 49.6562 312.832 51.9219C310.957 63.7188 310.02 71.5117 310.02 75.3008V79.0508C310.645 87.8008 311.895 92.1758 313.77 92.1758H314.707C315.957 92.1758 316.582 91.5508 316.582 90.3008V81.8633C316.777 80.6133 317.383 79.9883 318.398 79.9883C320.703 79.9883 322.578 84.3633 324.023 93.1133V97.8008C324.023 103.387 320.293 106.492 312.832 107.117H311.895C301.895 105.125 296.895 100.77 296.895 94.0508H295.957C295.957 98.543 291.582 103.211 282.832 108.055H281.895C270.059 106.531 264.141 102.488 264.141 95.9258V88.4258C264.141 61.5898 273.184 48.1719 291.27 48.1719C293.379 48.1719 298.691 47.8594 307.207 47.2344ZM281.016 89.3633L281.895 94.0508H283.77C287.324 94.0508 290.762 84.0703 294.082 64.1094V63.1719C294.082 62.2734 293.145 61.3359 291.27 60.3594H289.395C283.809 65.8281 281.016 75.4961 281.016 89.3633ZM341.719 46.8828H353.555C360.352 46.8828 363.75 51.3945 363.75 60.418C363.75 64.7148 364.883 68.1133 367.148 70.6133V71.4336C367.148 72.2539 366.289 73.0938 364.57 73.9531H363.75C353.008 73.1328 347.637 69.7539 347.637 63.8164H346.816C344.551 67.7617 343.418 70.5938 343.418 72.3125C361.465 78.0938 370.488 84.2852 370.488 90.8867C370.488 97.6836 361.738 103.055 344.238 107C332.949 103.758 327.305 99.5195 327.305 94.2852V93.4648C327.305 92.6055 328.438 91.7461 330.703 90.8867C330.977 90.8867 334.375 92.0195 340.898 94.2852H341.719C346.562 94.2852 350.234 92.6055 352.734 89.2461V87.5469C352.734 85.7109 346.523 82.8789 334.102 79.0508C329.023 75.6523 326.484 72.2734 326.484 68.9141C326.484 61.4531 331.562 54.1094 341.719 46.8828Z" fill="white"/>
</svg>
