<svg width="417" height="149" viewBox="0 0 417 149" fill="none" xmlns="http://www.w3.org/2000/svg">
<path d="M38.5391 34.0352H44.8086C53.9102 34.0352 58.4609 37.8828 58.4609 45.5781V57.1211C58.4609 59.6211 58.1094 62.7656 57.4062 66.5547C58.1094 67.7266 58.4609 69.4844 58.4609 71.8281L56.3516 72.8828H51.1367C44.1445 72.8828 40.6484 70.0703 40.6484 64.4453V60.2852L41.7031 49.7969L39.5938 48.7422C33.3047 60.6953 30.1602 70.4805 30.1602 78.0977L34.3203 81.2617H44.8086C58.832 81.2617 65.8438 85.4609 65.8438 93.8594V95.9688C60.4922 110.656 51.0391 118 37.4844 118C22.7969 114.289 15.4531 108 15.4531 99.1328L17.5625 98.0781H19.6133C25.2773 102.336 30.5312 104.777 35.375 105.402C43.7734 102.473 47.9727 97.9219 47.9727 91.75L42.7578 89.6406C42.0156 89.6406 40.9609 89.9922 39.5938 90.6953C22.0938 89.6797 13.3438 86.8867 13.3438 82.3164V73.9375C16.5078 47.3359 24.9062 34.0352 38.5391 34.0352ZM92.8555 58.0586H93.793C101.645 58.0586 106.254 64.8164 107.621 78.332V82.9609C107.621 92.3359 103.305 98.1758 94.6719 100.48H90.9805L86.4102 99.543V100.48C86.4102 106.027 88.8711 108.801 93.793 108.801C95.8242 108.801 99.2031 105.715 103.93 99.543C105.258 99.543 106.488 102.004 107.621 106.926C105.16 114.309 99.9258 118 91.918 118C82.4648 118 75.707 113.996 71.6445 105.988C69.1836 101.652 67.9531 96.125 67.9531 89.4062V79.2695C67.9531 65.1289 76.2539 58.0586 92.8555 58.0586ZM84.5352 84.7773V90.3438C84.7305 91.5547 85.3555 92.1602 86.4102 92.1602C89.457 88.957 90.9805 82.8242 90.9805 73.7617C90.3945 72.5508 90.1016 71.6133 90.1016 70.9492H89.1641C86.0781 72.3945 84.5352 77.0039 84.5352 84.7773ZM144.066 55.832H146.82C152.367 55.832 156.645 57.9609 159.652 62.2188C155.98 71.0078 154.145 78.332 154.145 84.1914V86.0078C154.145 88.1953 155.355 90.6367 157.777 93.332C157.777 94.543 157.172 95.1484 155.961 95.1484H154.145C142.543 95.1484 136.742 90.2656 136.742 80.5H135.863C130.98 91.75 128.539 102.727 128.539 113.43V116.184C128.539 117.395 127.934 118 126.723 118H125.785C116.645 118 112.074 112.219 112.074 100.656C110.863 87.8047 110.258 74.3867 110.258 60.4023L113.891 57.6484H119.398C126.117 58.8594 129.477 61.9062 129.477 66.7891V69.543L128.539 75.0508V75.9297H129.477C135.453 62.5312 140.316 55.832 144.066 55.832ZM197.152 55.0703C203.598 56.5547 206.82 58.8203 206.82 61.8672C204.125 99.2891 197.035 118 185.551 118C174.105 118 166.684 107.023 163.285 85.0703C163.285 83.8984 162.953 78.0977 162.289 67.668C164.008 61.2227 167.23 58 171.957 58H176.82C180.688 58.3906 182.621 59.3477 182.621 60.8711C182.621 62.2773 181.977 67.1211 180.688 75.4023C180.766 82.7852 182.699 91.4961 186.488 101.535C190.004 101.535 192.582 87.0234 194.223 58C194.223 57.0625 195.199 56.0859 197.152 55.0703ZM219.594 25.3633H221.469C226.703 25.3633 230.395 27.2188 232.543 30.9297C229.926 44.5234 227.777 51.3203 226.098 51.3203H222.348C216.176 51.3203 213.09 47.6094 213.09 40.1875V33.6836C213.09 28.1367 215.258 25.3633 219.594 25.3633ZM220.531 58.7031H221.469C225.102 58.7031 228.188 60.5586 230.727 64.2695C228.852 71.7305 227.309 80.6953 226.098 91.1641C226.879 99.1719 228.109 103.176 229.789 103.176C232.25 99.6211 233.48 96.8477 233.48 94.8555H236.234L237.172 101.301C237.172 112.434 233.48 118 226.098 118C214.965 118 209.398 108.117 209.398 88.3516V84.6602C209.398 67.9805 211.566 59.6406 215.902 59.6406C216.918 59.0156 218.461 58.7031 220.531 58.7031ZM260.902 58.2344H266.293C275.199 60.2656 279.652 66.5156 279.652 76.9844V78.7422C279.652 83.9375 275.785 86.9062 268.051 87.6484C264.965 87.6484 263.188 85.5781 262.719 81.4375H263.598L262.719 79.6211V75.168H260.902C258.52 75.168 257.035 80.2266 256.449 90.3438V93.918C256.449 104.621 259.418 109.973 265.355 109.973H267.172C269.711 109.621 271.488 104.855 272.504 95.6758C273.676 95.0898 274.574 94.7969 275.199 94.7969C279.379 96.0078 281.469 98.3906 281.469 101.945C281.469 110.852 274.32 116.203 260.023 118C248.344 118 241.508 109.68 239.516 93.0391V90.3438C239.516 71.75 244.867 61.6328 255.57 59.9922C257.523 58.8203 259.301 58.2344 260.902 58.2344ZM293.773 25.3633H295.648C300.883 25.3633 304.574 27.2188 306.723 30.9297C304.105 44.5234 301.957 51.3203 300.277 51.3203H296.527C290.355 51.3203 287.27 47.6094 287.27 40.1875V33.6836C287.27 28.1367 289.438 25.3633 293.773 25.3633ZM294.711 58.7031H295.648C299.281 58.7031 302.367 60.5586 304.906 64.2695C303.031 71.7305 301.488 80.6953 300.277 91.1641C301.059 99.1719 302.289 103.176 303.969 103.176C306.43 99.6211 307.66 96.8477 307.66 94.8555H310.414L311.352 101.301C311.352 112.434 307.66 118 300.277 118C289.145 118 283.578 108.117 283.578 88.3516V84.6602C283.578 67.9805 285.746 59.6406 290.082 59.6406C291.098 59.0156 292.641 58.7031 294.711 58.7031ZM336.723 58.0586C353.949 60.0508 362.562 66.8086 362.562 78.332C363.188 80.7148 363.5 83.1758 363.5 85.7148C361.273 106.613 356.664 117.062 349.672 117.062C349.672 117.688 348.754 118 346.918 118H344.105C323.832 118 313.695 108.469 313.695 89.4062C313.695 70.9688 321.371 60.5195 336.723 58.0586ZM331.215 94.9727V97.7266C331.215 103.039 333.363 107.023 337.66 109.68H339.535C343.832 107.648 346.586 98.1172 347.797 81.0859C347.016 71.2812 345.18 66.3789 342.289 66.3789C334.906 72.4727 331.215 82.0039 331.215 94.9727ZM382.133 57.8828H393.969C400.766 57.8828 404.164 62.3945 404.164 71.418C404.164 75.7148 405.297 79.1133 407.562 81.6133V82.4336C407.562 83.2539 406.703 84.0938 404.984 84.9531H404.164C393.422 84.1328 388.051 80.7539 388.051 74.8164H387.23C384.965 78.7617 383.832 81.5938 383.832 83.3125C401.879 89.0938 410.902 95.2852 410.902 101.887C410.902 108.684 402.152 114.055 384.652 118C373.363 114.758 367.719 110.52 367.719 105.285V104.465C367.719 103.605 368.852 102.746 371.117 101.887C371.391 101.887 374.789 103.02 381.312 105.285H382.133C386.977 105.285 390.648 103.605 393.148 100.246V98.5469C393.148 96.7109 386.938 93.8789 374.516 90.0508C369.438 86.6523 366.898 83.2734 366.898 79.9141C366.898 72.4531 371.977 65.1094 382.133 57.8828Z" fill="#233877"/>
<path d="M33.5391 28.0352H39.8086C48.9102 28.0352 53.4609 31.8828 53.4609 39.5781V51.1211C53.4609 53.6211 53.1094 56.7656 52.4062 60.5547C53.1094 61.7266 53.4609 63.4844 53.4609 65.8281L51.3516 66.8828H46.1367C39.1445 66.8828 35.6484 64.0703 35.6484 58.4453V54.2852L36.7031 43.7969L34.5938 42.7422C28.3047 54.6953 25.1602 64.4805 25.1602 72.0977L29.3203 75.2617H39.8086C53.832 75.2617 60.8438 79.4609 60.8438 87.8594V89.9688C55.4922 104.656 46.0391 112 32.4844 112C17.7969 108.289 10.4531 102 10.4531 93.1328L12.5625 92.0781H14.6133C20.2773 96.3359 25.5312 98.7773 30.375 99.4023C38.7734 96.4727 42.9727 91.9219 42.9727 85.75L37.7578 83.6406C37.0156 83.6406 35.9609 83.9922 34.5938 84.6953C17.0938 83.6797 8.34375 80.8867 8.34375 76.3164V67.9375C11.5078 41.3359 19.9062 28.0352 33.5391 28.0352ZM87.8555 52.0586H88.793C96.6445 52.0586 101.254 58.8164 102.621 72.332V76.9609C102.621 86.3359 98.3047 92.1758 89.6719 94.4805H85.9805L81.4102 93.543V94.4805C81.4102 100.027 83.8711 102.801 88.793 102.801C90.8242 102.801 94.2031 99.7148 98.9297 93.543C100.258 93.543 101.488 96.0039 102.621 100.926C100.16 108.309 94.9258 112 86.918 112C77.4648 112 70.707 107.996 66.6445 99.9883C64.1836 95.6523 62.9531 90.125 62.9531 83.4062V73.2695C62.9531 59.1289 71.2539 52.0586 87.8555 52.0586ZM79.5352 78.7773V84.3438C79.7305 85.5547 80.3555 86.1602 81.4102 86.1602C84.457 82.957 85.9805 76.8242 85.9805 67.7617C85.3945 66.5508 85.1016 65.6133 85.1016 64.9492H84.1641C81.0781 66.3945 79.5352 71.0039 79.5352 78.7773ZM139.066 49.832H141.82C147.367 49.832 151.645 51.9609 154.652 56.2188C150.98 65.0078 149.145 72.332 149.145 78.1914V80.0078C149.145 82.1953 150.355 84.6367 152.777 87.332C152.777 88.543 152.172 89.1484 150.961 89.1484H149.145C137.543 89.1484 131.742 84.2656 131.742 74.5H130.863C125.98 85.75 123.539 96.7266 123.539 107.43V110.184C123.539 111.395 122.934 112 121.723 112H120.785C111.645 112 107.074 106.219 107.074 94.6562C105.863 81.8047 105.258 68.3867 105.258 54.4023L108.891 51.6484H114.398C121.117 52.8594 124.477 55.9062 124.477 60.7891V63.543L123.539 69.0508V69.9297H124.477C130.453 56.5312 135.316 49.832 139.066 49.832ZM192.152 49.0703C198.598 50.5547 201.82 52.8203 201.82 55.8672C199.125 93.2891 192.035 112 180.551 112C169.105 112 161.684 101.023 158.285 79.0703C158.285 77.8984 157.953 72.0977 157.289 61.668C159.008 55.2227 162.23 52 166.957 52H171.82C175.688 52.3906 177.621 53.3477 177.621 54.8711C177.621 56.2773 176.977 61.1211 175.688 69.4023C175.766 76.7852 177.699 85.4961 181.488 95.5352C185.004 95.5352 187.582 81.0234 189.223 52C189.223 51.0625 190.199 50.0859 192.152 49.0703ZM214.594 19.3633H216.469C221.703 19.3633 225.395 21.2188 227.543 24.9297C224.926 38.5234 222.777 45.3203 221.098 45.3203H217.348C211.176 45.3203 208.09 41.6094 208.09 34.1875V27.6836C208.09 22.1367 210.258 19.3633 214.594 19.3633ZM215.531 52.7031H216.469C220.102 52.7031 223.188 54.5586 225.727 58.2695C223.852 65.7305 222.309 74.6953 221.098 85.1641C221.879 93.1719 223.109 97.1758 224.789 97.1758C227.25 93.6211 228.48 90.8477 228.48 88.8555H231.234L232.172 95.3008C232.172 106.434 228.48 112 221.098 112C209.965 112 204.398 102.117 204.398 82.3516V78.6602C204.398 61.9805 206.566 53.6406 210.902 53.6406C211.918 53.0156 213.461 52.7031 215.531 52.7031ZM255.902 52.2344H261.293C270.199 54.2656 274.652 60.5156 274.652 70.9844V72.7422C274.652 77.9375 270.785 80.9062 263.051 81.6484C259.965 81.6484 258.188 79.5781 257.719 75.4375H258.598L257.719 73.6211V69.168H255.902C253.52 69.168 252.035 74.2266 251.449 84.3438V87.918C251.449 98.6211 254.418 103.973 260.355 103.973H262.172C264.711 103.621 266.488 98.8555 267.504 89.6758C268.676 89.0898 269.574 88.7969 270.199 88.7969C274.379 90.0078 276.469 92.3906 276.469 95.9453C276.469 104.852 269.32 110.203 255.023 112C243.344 112 236.508 103.68 234.516 87.0391V84.3438C234.516 65.75 239.867 55.6328 250.57 53.9922C252.523 52.8203 254.301 52.2344 255.902 52.2344ZM288.773 19.3633H290.648C295.883 19.3633 299.574 21.2188 301.723 24.9297C299.105 38.5234 296.957 45.3203 295.277 45.3203H291.527C285.355 45.3203 282.27 41.6094 282.27 34.1875V27.6836C282.27 22.1367 284.438 19.3633 288.773 19.3633ZM289.711 52.7031H290.648C294.281 52.7031 297.367 54.5586 299.906 58.2695C298.031 65.7305 296.488 74.6953 295.277 85.1641C296.059 93.1719 297.289 97.1758 298.969 97.1758C301.43 93.6211 302.66 90.8477 302.66 88.8555H305.414L306.352 95.3008C306.352 106.434 302.66 112 295.277 112C284.145 112 278.578 102.117 278.578 82.3516V78.6602C278.578 61.9805 280.746 53.6406 285.082 53.6406C286.098 53.0156 287.641 52.7031 289.711 52.7031ZM331.723 52.0586C348.949 54.0508 357.562 60.8086 357.562 72.332C358.188 74.7148 358.5 77.1758 358.5 79.7148C356.273 100.613 351.664 111.062 344.672 111.062C344.672 111.688 343.754 112 341.918 112H339.105C318.832 112 308.695 102.469 308.695 83.4062C308.695 64.9688 316.371 54.5195 331.723 52.0586ZM326.215 88.9727V91.7266C326.215 97.0391 328.363 101.023 332.66 103.68H334.535C338.832 101.648 341.586 92.1172 342.797 75.0859C342.016 65.2812 340.18 60.3789 337.289 60.3789C329.906 66.4727 326.215 76.0039 326.215 88.9727ZM377.133 51.8828H388.969C395.766 51.8828 399.164 56.3945 399.164 65.418C399.164 69.7148 400.297 73.1133 402.562 75.6133V76.4336C402.562 77.2539 401.703 78.0938 399.984 78.9531H399.164C388.422 78.1328 383.051 74.7539 383.051 68.8164H382.23C379.965 72.7617 378.832 75.5938 378.832 77.3125C396.879 83.0938 405.902 89.2852 405.902 95.8867C405.902 102.684 397.152 108.055 379.652 112C368.363 108.758 362.719 104.52 362.719 99.2852V98.4648C362.719 97.6055 363.852 96.7461 366.117 95.8867C366.391 95.8867 369.789 97.0195 376.312 99.2852H377.133C381.977 99.2852 385.648 97.6055 388.148 94.2461V92.5469C388.148 90.7109 381.938 87.8789 369.516 84.0508C364.438 80.6523 361.898 77.2734 361.898 73.9141C361.898 66.4531 366.977 59.1094 377.133 51.8828Z" fill="#6586BD"/>
<path d="M27.5391 23.0352H33.8086C42.9102 23.0352 47.4609 26.8828 47.4609 34.5781V46.1211C47.4609 48.6211 47.1094 51.7656 46.4062 55.5547C47.1094 56.7266 47.4609 58.4844 47.4609 60.8281L45.3516 61.8828H40.1367C33.1445 61.8828 29.6484 59.0703 29.6484 53.4453V49.2852L30.7031 38.7969L28.5938 37.7422C22.3047 49.6953 19.1602 59.4805 19.1602 67.0977L23.3203 70.2617H33.8086C47.832 70.2617 54.8438 74.4609 54.8438 82.8594V84.9688C49.4922 99.6562 40.0391 107 26.4844 107C11.7969 103.289 4.45312 97 4.45312 88.1328L6.5625 87.0781H8.61328C14.2773 91.3359 19.5312 93.7773 24.375 94.4023C32.7734 91.4727 36.9727 86.9219 36.9727 80.75L31.7578 78.6406C31.0156 78.6406 29.9609 78.9922 28.5938 79.6953C11.0938 78.6797 2.34375 75.8867 2.34375 71.3164V62.9375C5.50781 36.3359 13.9062 23.0352 27.5391 23.0352ZM81.8555 47.0586H82.793C90.6445 47.0586 95.2539 53.8164 96.6211 67.332V71.9609C96.6211 81.3359 92.3047 87.1758 83.6719 89.4805H79.9805L75.4102 88.543V89.4805C75.4102 95.0273 77.8711 97.8008 82.793 97.8008C84.8242 97.8008 88.2031 94.7148 92.9297 88.543C94.2578 88.543 95.4883 91.0039 96.6211 95.9258C94.1602 103.309 88.9258 107 80.918 107C71.4648 107 64.707 102.996 60.6445 94.9883C58.1836 90.6523 56.9531 85.125 56.9531 78.4062V68.2695C56.9531 54.1289 65.2539 47.0586 81.8555 47.0586ZM73.5352 73.7773V79.3438C73.7305 80.5547 74.3555 81.1602 75.4102 81.1602C78.457 77.957 79.9805 71.8242 79.9805 62.7617C79.3945 61.5508 79.1016 60.6133 79.1016 59.9492H78.1641C75.0781 61.3945 73.5352 66.0039 73.5352 73.7773ZM133.066 44.832H135.82C141.367 44.832 145.645 46.9609 148.652 51.2188C144.98 60.0078 143.145 67.332 143.145 73.1914V75.0078C143.145 77.1953 144.355 79.6367 146.777 82.332C146.777 83.543 146.172 84.1484 144.961 84.1484H143.145C131.543 84.1484 125.742 79.2656 125.742 69.5H124.863C119.98 80.75 117.539 91.7266 117.539 102.43V105.184C117.539 106.395 116.934 107 115.723 107H114.785C105.645 107 101.074 101.219 101.074 89.6562C99.8633 76.8047 99.2578 63.3867 99.2578 49.4023L102.891 46.6484H108.398C115.117 47.8594 118.477 50.9062 118.477 55.7891V58.543L117.539 64.0508V64.9297H118.477C124.453 51.5312 129.316 44.832 133.066 44.832ZM186.152 44.0703C192.598 45.5547 195.82 47.8203 195.82 50.8672C193.125 88.2891 186.035 107 174.551 107C163.105 107 155.684 96.0234 152.285 74.0703C152.285 72.8984 151.953 67.0977 151.289 56.668C153.008 50.2227 156.23 47 160.957 47H165.82C169.688 47.3906 171.621 48.3477 171.621 49.8711C171.621 51.2773 170.977 56.1211 169.688 64.4023C169.766 71.7852 171.699 80.4961 175.488 90.5352C179.004 90.5352 181.582 76.0234 183.223 47C183.223 46.0625 184.199 45.0859 186.152 44.0703ZM208.594 14.3633H210.469C215.703 14.3633 219.395 16.2188 221.543 19.9297C218.926 33.5234 216.777 40.3203 215.098 40.3203H211.348C205.176 40.3203 202.09 36.6094 202.09 29.1875V22.6836C202.09 17.1367 204.258 14.3633 208.594 14.3633ZM209.531 47.7031H210.469C214.102 47.7031 217.188 49.5586 219.727 53.2695C217.852 60.7305 216.309 69.6953 215.098 80.1641C215.879 88.1719 217.109 92.1758 218.789 92.1758C221.25 88.6211 222.48 85.8477 222.48 83.8555H225.234L226.172 90.3008C226.172 101.434 222.48 107 215.098 107C203.965 107 198.398 97.1172 198.398 77.3516V73.6602C198.398 56.9805 200.566 48.6406 204.902 48.6406C205.918 48.0156 207.461 47.7031 209.531 47.7031ZM249.902 47.2344H255.293C264.199 49.2656 268.652 55.5156 268.652 65.9844V67.7422C268.652 72.9375 264.785 75.9062 257.051 76.6484C253.965 76.6484 252.188 74.5781 251.719 70.4375H252.598L251.719 68.6211V64.168H249.902C247.52 64.168 246.035 69.2266 245.449 79.3438V82.918C245.449 93.6211 248.418 98.9727 254.355 98.9727H256.172C258.711 98.6211 260.488 93.8555 261.504 84.6758C262.676 84.0898 263.574 83.7969 264.199 83.7969C268.379 85.0078 270.469 87.3906 270.469 90.9453C270.469 99.8516 263.32 105.203 249.023 107C237.344 107 230.508 98.6797 228.516 82.0391V79.3438C228.516 60.75 233.867 50.6328 244.57 48.9922C246.523 47.8203 248.301 47.2344 249.902 47.2344ZM282.773 14.3633H284.648C289.883 14.3633 293.574 16.2188 295.723 19.9297C293.105 33.5234 290.957 40.3203 289.277 40.3203H285.527C279.355 40.3203 276.27 36.6094 276.27 29.1875V22.6836C276.27 17.1367 278.438 14.3633 282.773 14.3633ZM283.711 47.7031H284.648C288.281 47.7031 291.367 49.5586 293.906 53.2695C292.031 60.7305 290.488 69.6953 289.277 80.1641C290.059 88.1719 291.289 92.1758 292.969 92.1758C295.43 88.6211 296.66 85.8477 296.66 83.8555H299.414L300.352 90.3008C300.352 101.434 296.66 107 289.277 107C278.145 107 272.578 97.1172 272.578 77.3516V73.6602C272.578 56.9805 274.746 48.6406 279.082 48.6406C280.098 48.0156 281.641 47.7031 283.711 47.7031ZM325.723 47.0586C342.949 49.0508 351.562 55.8086 351.562 67.332C352.188 69.7148 352.5 72.1758 352.5 74.7148C350.273 95.6133 345.664 106.062 338.672 106.062C338.672 106.688 337.754 107 335.918 107H333.105C312.832 107 302.695 97.4688 302.695 78.4062C302.695 59.9688 310.371 49.5195 325.723 47.0586ZM320.215 83.9727V86.7266C320.215 92.0391 322.363 96.0234 326.66 98.6797H328.535C332.832 96.6484 335.586 87.1172 336.797 70.0859C336.016 60.2812 334.18 55.3789 331.289 55.3789C323.906 61.4727 320.215 71.0039 320.215 83.9727ZM371.133 46.8828H382.969C389.766 46.8828 393.164 51.3945 393.164 60.418C393.164 64.7148 394.297 68.1133 396.562 70.6133V71.4336C396.562 72.2539 395.703 73.0938 393.984 73.9531H393.164C382.422 73.1328 377.051 69.7539 377.051 63.8164H376.23C373.965 67.7617 372.832 70.5938 372.832 72.3125C390.879 78.0938 399.902 84.2852 399.902 90.8867C399.902 97.6836 391.152 103.055 373.652 107C362.363 103.758 356.719 99.5195 356.719 94.2852V93.4648C356.719 92.6055 357.852 91.7461 360.117 90.8867C360.391 90.8867 363.789 92.0195 370.312 94.2852H371.133C375.977 94.2852 379.648 92.6055 382.148 89.2461V87.5469C382.148 85.7109 375.938 82.8789 363.516 79.0508C358.438 75.6523 355.898 72.2734 355.898 68.9141C355.898 61.4531 360.977 54.1094 371.133 46.8828Z" fill="white"/>
</svg>
